<?xml version="1.0" standalone="no"?>
<!DOCTYPE svg PUBLIC "-//W3C//DTD SVG 20010904//EN"
 "http://www.w3.org/TR/2001/REC-SVG-20010904/DTD/svg10.dtd">
<svg version="1.0" xmlns="http://www.w3.org/2000/svg"
 width="256.000000pt" height="256.000000pt" viewBox="0 0 256.000000 256.000000"
 preserveAspectRatio="xMidYMid meet">
<metadata>
Created by potrace 1.11, written by Peter Selinger 2001-2013
</metadata>
<g transform="translate(0.000000,256.000000) scale(0.100000,-0.100000)"
fill="#000000" stroke="none">
<path d="M0 1280 l0 -1280 1280 0 1280 0 0 1280 0 1280 -1280 0 -1280 0 0
-1280z m2045 671 c93 -24 133 -42 202 -89 59 -40 175 -155 207 -204 20 -31 23
-85 7 -116 -6 -12 -68 -63 -138 -113 -114 -83 -132 -92 -171 -92 -39 0 -48 5
-105 60 -79 77 -110 93 -187 93 -128 0 -210 -82 -210 -210 0 -129 82 -210 211
-210 82 0 136 26 195 95 28 33 59 58 80 65 31 11 41 9 87 -14 82 -41 241 -159
255 -189 32 -66 -29 -169 -166 -283 -239 -197 -597 -215 -849 -42 -41 28 -43
28 -43 8 0 -33 -26 -74 -56 -90 -21 -12 -68 -15 -205 -15 l-178 0 -28 27 c-16
15 -49 68 -73 118 l-44 90 -91 0 -91 0 -48 -100 c-30 -60 -59 -106 -75 -117
-23 -16 -50 -18 -208 -18 l-183 0 -32 33 c-61 60 -65 51 254 694 307 618 300
608 375 608 67 0 80 -19 256 -361 143 -279 167 -319 167 -286 0 49 27 177 51
247 27 77 99 179 182 255 171 159 419 218 652 156z"/>
<path d="M1753 1859 c-173 -29 -340 -154 -419 -314 -82 -166 -83 -364 -3 -533
40 -85 167 -214 250 -255 269 -133 590 -56 774 187 24 31 26 40 14 46 -7 5
-56 38 -107 73 l-93 65 -49 -52 c-75 -79 -137 -109 -236 -114 -117 -6 -172 14
-250 92 -71 72 -94 126 -94 226 0 100 23 154 95 227 75 75 136 97 249 91 90
-4 151 -33 221 -103 l52 -52 29 21 c16 11 64 46 108 77 l78 58 -83 84 c-64 64
-102 93 -159 121 -121 59 -245 77 -377 55z"/>
<path d="M460 1283 c-151 -305 -276 -559 -278 -564 -2 -5 62 -9 143 -9 l146 0
57 120 56 120 160 -2 161 -3 58 -117 58 -118 150 0 150 0 -34 63 c-19 34 -137
262 -263 507 -125 245 -242 471 -259 502 l-31 57 -274 -556z"/>
</g>
</svg>
