<svg version="1" xmlns="http://www.w3.org/2000/svg" width="1530.248" height="205.751" viewBox="0 0 1530.248 205.751"><path fill="#8CAB00" d="M457.484 198.25c-26.757 0-49.61-9.285-67.923-27.598-2.754-2.756-5.312-5.63-7.664-8.61-3.177 6.334-7.582 11.917-13.18 16.692l-.082.07c-11.79 9.767-25.722 14.72-41.413 14.72-22.153 0-39.968-8.524-51.424-24.305-1.915 2.68-4.08 5.228-6.483 7.634l-.08.08c-11.406 11.068-25.735 16.85-42.59 17.18l-17.575.297h-69.12c-2.87 0-5.486-1.635-6.743-4.213l-15.078-30.937h-38.37l-14.233 30.797c-1.227 2.654-3.884 4.354-6.808 4.354H15c-2.592 0-5-1.337-6.37-3.538s-1.503-4.952-.357-7.277L90.98 15.82c1.252-2.544 3.833-4.163 6.668-4.185h.06c2.81 0 5.39 1.574 6.673 4.08L167.6 139.108V20.02c0-1.996.796-3.91 2.212-5.318 1.405-1.397 3.307-2.18 5.288-2.18l49.964.294c16.13 0 29.938 5.61 41 16.67 4.004 4.004 7.306 8.32 9.9 12.927 2.965-5.572 6.97-10.58 12.002-14.993 11.115-10.082 24.322-15.194 39.256-15.194 11.87 0 23.223 3.614 33.745 10.743.065.042.128.087.192.133 8.256 5.978 15.173 13.162 20.613 21.4 2.464-3.147 5.16-6.183 8.086-9.11C408.366 16.886 431.12 7.5 457.484 7.5c26.56 0 49.314 9.286 67.628 27.6 1.288 1.288 2.535 2.604 3.74 3.947V20.02c0-4.14 3.357-7.5 7.5-7.5h39.58c4.142 0 7.5 3.36 7.5 7.5v119.81h30.337c-1.087-6.898-1.62-14.87-1.62-24.105V20.02c0-4.14 3.358-7.5 7.5-7.5h39.58c4.143 0 7.5 3.36 7.5 7.5v96c0 14.248.89 17.834 1.196 18.642.08.152.156.308.227.465 2.324 5.23 5.815 7.362 12.05 7.362 5.12 0 8.673-2.02 11.49-6.542.625-1.26 2.278-5.804 2.278-18.45V20.02c0-4.14 3.36-7.5 7.5-7.5h119.31c.664-.19 1.365-.294 2.09-.294h95.703c4.143 0 7.5 3.358 7.5 7.5v39.58c0 4.143-3.357 7.5-7.5 7.5h-48.916v10.108H904.1c4.143 0 7.5 3.358 7.5 7.5v39.58c0 4.144-3.357 7.5-7.5 7.5h-34.443v8.632h48.916c4.143 0 7.5 3.357 7.5 7.5v39.285c0 4.144-3.357 7.5-7.5 7.5H822.87c-4.142 0-7.5-3.356-7.5-7.5V66.808h-7.152V186.91c0 4.144-3.357 7.5-7.5 7.5h-39.286c-4.142 0-7.5-3.356-7.5-7.5V66.808h-5.676v50.69c0 19.76-3.13 34.8-9.565 45.98-.033.06-.067.116-.102.174-13.57 22.176-33.214 33.42-58.384 33.42-16.91 0-32.62-6.136-44.784-17.026v6.572c0 4.133-3.343 7.486-7.476 7.5l-91.59.295c-1.986 0-3.89-.785-5.296-2.187-1.412-1.407-2.205-3.318-2.205-5.312v-20.205c-1.204 1.343-2.45 2.658-3.74 3.947-18.315 18.314-41.07 27.6-67.63 27.6zm-141.36-73.054c.08.285.144.578.19.878.687 4.34 2.177 7.532 4.69 10.045.126.126.248.256.364.39 2.267 2.616 4.278 2.95 5.777 2.95.492 0 1.018-.043 1.563-.13.067-.01.134-.02.2-.028 3.227-.42 4.137-1.394 4.428-4.73l.013-.137c.093-.888.31-2.942-4.67-5.193l-12.557-4.046zm-41.013-26.26c5.31 7.465 8.793 15.474 10.41 23.93l18.008-2.456c-4.045-2.002-7.93-4.45-11.63-7.33-.043-.032-.084-.065-.126-.1-6.41-5.208-11.44-10.914-15.077-17.09-.5 1.014-1.027 2.03-1.584 3.045zm71.6-20.756c6.32 2.197 11.94 5.16 16.712 8.822 1.152-7.538 3.155-14.72 6.003-21.533l-22.293 12.49c-.138.08-.28.15-.422.22zm-9.866-3.242c-.03-.055-.058-.11-.086-.167-4.04-8.08-7.84-8.08-9.09-8.08-.33 0-.676.02-1.03.063l-.11.012c-1.397.147-1.828.465-1.846.48.005 0-.246.398-.31 1.612-.044.76-.108 1.84 3.743 3.124.366.123.716.27 1.05.44l7.68 2.518z"/><path fill="#FFF" d="M457.484 15c24.517 0 45.488 8.566 62.325 25.403 6.93 6.93 12.434 14.572 16.54 22.862V20.02h39.582v127.31h47.094c-2.25-8.048-3.376-18.538-3.376-31.605V20.02h39.58v96c0 12.11.592 19.494 2.068 22.152 3.545 7.977 9.747 11.816 18.904 11.816 7.976 0 13.883-3.545 18.02-10.34 2.066-3.84 3.248-11.224 3.248-22.152V20.02H822.87v-.294h95.702v39.58h-56.416v25.108H904.1v39.58h-41.943v23.632h56.416v39.285H822.87V59.308h-22.152V186.91h-39.286V59.308h-20.676v58.19c0 18.61-2.954 32.492-8.565 42.24-12.11 19.79-29.537 29.832-51.986 29.832-22.146 0-41.438-11.676-52.284-30.648v27.694l-91.567.295v-44.444c-4.107 8.31-9.612 15.953-16.542 22.883-16.836 16.835-37.808 25.4-62.324 25.4-24.812 0-45.784-8.565-62.62-25.4-6.258-6.26-11.33-13.05-15.235-20.4-1.976 11.47-7.286 20.834-15.78 28.08-10.34 8.565-22.45 12.995-36.628 12.995-25.25 0-42.747-11.884-51.59-32.215-2.506 6.586-6.37 12.49-11.622 17.742-10.043 9.747-22.45 14.77-37.514 15.064l-17.428.295h-69.12l-17.132-35.15H74.962l-16.246 35.15H15L97.707 19.137l77.392 151.06V20.022l49.92.296c14.177 0 25.992 4.726 35.74 14.474 9.747 9.748 14.77 21.563 14.77 35.446 0 9.748-3.25 19.495-9.453 29.243 7.95 9.595 12.333 20.21 12.92 31.843l29.91-4.078c.888 5.61 2.955 10.338 6.795 14.178 3.2 3.692 7.015 5.538 11.445 5.538.886 0 1.798-.073 2.733-.22 6.793-.887 10.338-4.727 10.93-11.52.59-5.613-2.66-10.044-9.453-12.997l-17.428-5.613c-6.204-2.067-12.11-5.316-17.428-9.45-14.18-11.522-20.677-25.404-19.2-42.24v.294c.887-13.292 6.203-23.926 15.655-32.196 9.748-8.86 20.972-13.292 34.264-13.292 10.34 0 20.383 3.25 29.54 9.452 8.565 6.203 15.654 13.883 20.972 23.04l-34.265 19.2c-4.04-8.078-9.304-12.23-15.797-12.23-.63 0-1.272.04-1.925.12-5.612.59-8.565 3.543-8.86 9.156-.296 5.02 2.657 8.566 8.86 10.634h-.295l17.132 5.612c6.498 2.067 12.406 5.02 17.427 9.156 3.774 3.035 7.028 6.255 9.765 9.656-.002-.267-.017-.527-.017-.795 0-24.516 8.565-45.192 25.402-62.03C412.29 23.568 432.967 15 457.484 15m0-15c-28.426 0-52.964 10.124-72.932 30.092-.803.802-1.587 1.61-2.358 2.43-4.806-5.77-10.37-10.953-16.64-15.492-.125-.092-.253-.182-.383-.27C353.55 8.89 340.43 4.728 327.22 4.728c-16.836 0-31.724 5.754-44.252 17.1-2.608 2.293-4.975 4.725-7.097 7.293-1.402-1.69-2.904-3.334-4.505-4.936-12.51-12.51-28.087-18.857-46.305-18.867l-49.873-.295h-.09c-3.96 0-7.762 1.567-10.574 4.362-2.832 2.816-4.425 6.645-4.425 10.638v88l-49.042-95.725c-2.568-5.012-7.725-8.16-13.35-8.16h-.116c-5.67.043-10.83 3.28-13.338 8.366L1.546 180.28c-2.292 4.648-2.02 10.15.717 14.553C5 199.235 9.816 201.91 15 201.91h43.716c5.848 0 11.163-3.397 13.616-8.706l12.222-26.443h28.884l13.024 26.724c2.514 5.156 7.748 8.428 13.484 8.428H209.067c.084 0 .17 0 .254-.002l17.428-.295c18.857-.37 34.894-6.863 47.707-19.3.054-.05.107-.103.16-.157.403-.402.8-.81 1.19-1.218 12.68 13.093 30.29 20.085 51.415 20.085 17.484 0 33.028-5.533 46.198-16.446.055-.046.11-.092.165-.14 3.528-3.01 6.64-6.298 9.328-9.854.445.46.894.916 1.347 1.37 19.77 19.77 44.408 29.796 73.227 29.796 24.398 0 45.827-7.283 63.867-21.68v2.84c0 3.986 1.588 7.81 4.412 10.624 2.812 2.803 6.62 4.376 10.59 4.376h.048l91.567-.295c5.72-.02 10.686-3.238 13.2-7.96 11.514 7.06 24.896 10.913 39.036 10.913 27.566 0 49.967-12.796 64.782-37.003.07-.114.138-.23.205-.347.427-.74.84-1.497 1.242-2.268v21.96c0 8.283 6.716 15 15 15h39.286c4.387 0 8.333-1.884 11.076-4.886 2.743 3.002 6.69 4.885 11.076 4.885h95.703c8.284 0 15-6.715 15-15v-39.284c0-8.284-6.716-15-15-15h-2.203c1.72-2.44 2.73-5.418 2.73-8.63v-39.58c0-3.895-1.483-7.442-3.916-10.108h3.39c8.283 0 15-6.716 15-15v-39.58c0-8.285-6.717-15-15-15H822.87c-1.02 0-2.014.1-2.975.294H701.47c-8.284 0-15 6.716-15 15v97.476c0 10.003-1.114 13.996-1.433 14.936-1.47 2.185-2.688 2.557-4.834 2.557-3.904 0-4.336-.97-5.197-2.907l-.006-.014c-.228-1.14-.77-5.003-.77-16.048v-96c0-8.285-6.715-15-15-15h-39.58c-8.284 0-15 6.715-15 15v95.702c0 6.01.22 11.53.666 16.605h-14.384V20.02c0-8.283-6.716-15-15-15h-39.58c-8.285 0-15 6.717-15 15v1.66C503.31 7.282 481.88 0 457.483 0z"/><g><path fill="#8CAB00" d="M998.918 198.25c-27.15 0-50.103-9.186-68.22-27.304-18.117-18.115-27.304-41.067-27.304-68.22 0-26.56 9.286-49.315 27.6-67.627.03-.03.06-.062.092-.09C949.98 16.754 972.803 7.5 998.918 7.5c23.048 0 43.507 7.568 61.03 22.536V20.02c0-1.996.798-3.91 2.214-5.32 1.406-1.396 3.307-2.18 5.287-2.18l47.01.296c17.883.337 33.136 6.74 45.43 19.033 12.433 12.432 18.737 27.732 18.737 45.474 0 21.68-8.54 38.823-25.41 51.06l19.812 32.912L1244.74 15.82c1.254-2.544 3.834-4.163 6.67-4.185h.058c2.812 0 5.39 1.574 6.675 4.08l63.218 123.395V19.727c0-4.142 3.357-7.5 7.5-7.5h95.703c.726 0 1.427.103 2.09.295h88.594c4.142 0 7.5 3.358 7.5 7.5v39.286c0 4.142-3.358 7.5-7.5 7.5h-23.22v120.104c0 4.143-3.358 7.5-7.5 7.5h-39.286c-4.142 0-7.5-3.357-7.5-7.5V66.807h-62.096v10.107h34.443c4.143 0 7.5 3.358 7.5 7.5v39.58c0 4.144-3.357 7.5-7.5 7.5h-34.442v55.417c0 4.144-3.358 7.5-7.5 7.5h-74.438c-2.868 0-5.485-1.635-6.742-4.213l-15.078-30.937h-38.368l-14.234 30.797c-1.227 2.654-3.884 4.354-6.808 4.354h-78.865c-2.645 0-5.094-1.392-6.446-3.665L1114.233 169v17.91c0 4.144-3.357 7.5-7.5 7.5h-39.285c-4.144 0-7.5-3.356-7.5-7.5v-10.747c-17.54 14.672-37.998 22.088-61.032 22.088zm0-136.17c-11.824 0-21.395 3.824-29.257 11.687-7.754 7.755-11.686 17.5-11.686 28.96 0 11.822 3.822 21.393 11.687 29.258 7.864 7.863 17.435 11.686 29.258 11.686 15.278 0 27.74-7.425 38.1-22.702 1.122-1.656 2.86-2.794 4.826-3.163.46-.086.92-.128 1.38-.128 1.514 0 3.002.458 4.265 1.33l12.46 8.61V74.858l-14.07 10.29c-1.293.947-2.846 1.448-4.428 1.448-.386 0-.773-.03-1.16-.09-1.97-.308-3.733-1.387-4.905-3-10.487-14.418-22.415-21.427-36.47-21.427z"/><path fill="#FFF" d="M998.918 15c26.938 0 49.78 11.083 68.53 33.24V20.02l46.966.296c15.654.295 29.242 5.908 40.172 16.837s16.54 24.517 16.54 40.17c0 21.563-9.452 37.81-28.06 48.74l30.618 50.864 77.784-157.793 77.393 151.062V19.726h95.704v.296h90.684v39.286h-30.72v127.604h-39.286V59.307h-77.096v25.107h41.943v39.58h-41.944v62.917h-74.435l-17.134-35.15h-47.852l-16.246 35.15h-78.865l-26.88-45.192v45.193h-39.284v-28.668c-18.713 21.604-41.62 32.51-68.532 32.51-25.107 0-46.08-8.272-62.916-25.108-16.838-16.836-25.107-37.81-25.107-62.916 0-24.516 8.564-45.488 25.402-62.325C953.725 23.566 974.4 15 998.917 15m0 136.17c17.724 0 32.49-8.565 44.308-25.993l24.225 16.738V60.082l-25.998 19.016c-11.814-16.246-25.992-24.517-42.533-24.517-13.886 0-25.405 4.727-34.562 13.884s-13.883 20.677-13.883 34.264c0 13.883 4.727 25.403 13.883 34.56 9.156 9.156 20.675 13.883 34.56 13.883m0-151.17c-28.127 0-52.702 9.964-73.043 29.615l-.185.18c-19.77 19.77-29.796 44.31-29.796 72.933 0 29.213 9.926 53.95 29.502 73.523 19.572 19.575 44.31 29.5 73.52 29.5 19.85 0 37.907-5.086 53.983-15.17 1.636 6.51 7.528 11.33 14.548 11.33h39.285c5.87 0 10.955-3.373 13.418-8.287l.57.956c2.703 4.545 7.602 7.33 12.892 7.33h78.865c5.848 0 11.162-3.397 13.616-8.706l12.222-26.443h28.884l13.024 26.724c2.513 5.156 7.747 8.428 13.483 8.428h74.436c8.284 0 15-6.716 15-15v-47.916h26.943c8.284 0 15-6.716 15-15v-39.58c0-3.895-1.483-7.442-3.917-10.108h9.07v112.604c0 8.284 6.716 15 15 15h39.285c8.284 0 15-6.716 15-15V74.307h15.72c8.285 0 15-6.716 15-15V20.02c0-8.283-6.715-15-15-15h-87.708c-.962-.192-1.956-.294-2.975-.294h-95.703c-8.285 0-15 6.716-15 15v88.296l-49.044-95.726c-2.567-5.012-7.725-8.16-13.35-8.16h-.116c-5.67.043-10.83 3.28-13.338 8.366l-65.642 133.16-9.353-15.536c15.175-13.312 23.106-31.312 23.106-52.802 0-19.524-7.24-37.083-20.935-50.778-13.52-13.52-30.98-20.86-50.495-21.227l-.188-.003-46.966-.295h-.095c-3.96 0-7.762 1.566-10.573 4.36-1.758 1.747-3.038 3.884-3.758 6.21C1036.998 5.226 1018.87 0 998.918 0zm0 136.17c-9.733 0-17.568-3.103-23.954-9.488-6.385-6.386-9.49-14.222-9.49-23.954 0-9.533 3.105-17.27 9.49-23.657 6.386-6.384 14.22-9.488 23.954-9.488 11.483 0 21.428 6 30.402 18.34 2.344 3.223 5.874 5.38 9.812 5.996.772.12 1.548.18 2.32.18 3.163 0 6.27-1 8.854-2.893l2.143-1.566v23.68l-.698-.482c-2.524-1.744-5.503-2.66-8.527-2.66-.92 0-1.844.086-2.762.258-3.933.736-7.408 3.014-9.653 6.325-8.98 13.243-19.114 19.41-31.892 19.41z"/></g><g><path fill="#777" d="M862.157 123.995H904.1v-39.58h-41.943V59.307h56.416v-39.58H822.87v.295H701.47v97.476c0 10.93-1.18 18.313-3.248 22.153-4.136 6.795-10.043 10.34-18.02 10.34-9.156 0-15.358-3.84-18.903-11.816-1.478-2.658-2.068-10.042-2.068-22.152v-96h-39.58v95.702c0 13.067 1.127 23.558 3.375 31.605h-47.094V20.02h-39.58v43.244c-4.108-8.29-9.613-15.932-16.543-22.862C502.973 23.566 482 15 457.485 15s-45.193 8.566-62.325 25.698c-16.837 16.837-25.402 37.513-25.402 62.03 0 .267.015.527.017.794-2.736-3.4-5.99-6.62-9.766-9.656-5.022-4.135-10.93-7.09-17.428-9.156l-17.132-5.612h.295c-6.203-2.068-9.156-5.612-8.86-10.634.295-5.612 3.248-8.566 8.86-9.157 7.385-.886 13.292 3.25 17.723 12.11l34.265-19.2c-5.317-9.156-12.406-16.836-20.973-23.04-9.156-6.202-19.2-9.45-29.538-9.45-13.292 0-24.516 4.43-34.264 13.29-9.452 8.272-14.77 18.905-15.655 32.197v-.295c-1.477 16.835 5.02 30.718 19.2 42.24 5.316 4.134 11.224 7.383 17.427 9.45l17.428 5.613c6.794 2.953 10.043 7.384 9.452 12.996-.59 6.793-4.136 10.633-10.93 11.52-5.61.886-10.338-.887-14.178-5.317-3.84-3.84-5.907-8.566-6.794-14.178l-29.91 4.078c-.59-11.632-4.97-22.248-12.92-31.844 6.202-9.75 9.45-19.497 9.45-29.244 0-13.883-5.02-25.698-14.77-35.446-9.746-9.748-21.56-14.474-35.74-14.474l-49.92-.295v150.176L97.71 19.136 15 186.91h43.717l16.246-35.15h47.852l17.132 35.15h69.119l17.428-.294c15.064-.296 27.47-5.317 37.514-15.064 5.25-5.252 9.115-11.156 11.62-17.742 8.844 20.33 26.34 32.215 51.59 32.215 14.18 0 26.29-4.43 36.63-12.996 8.493-7.246 13.803-16.61 15.78-28.08 3.906 7.35 8.977 14.14 15.235 20.4 16.836 16.835 37.81 25.4 62.62 25.4 24.517 0 45.488-8.565 62.325-25.4 6.93-6.93 12.435-14.573 16.542-22.884v44.445l91.567-.294v-27.694c10.845 18.973 30.138 30.647 52.283 30.647 22.45 0 39.876-10.044 51.987-29.834 5.61-9.747 8.565-23.63 8.565-42.24v-58.19h20.676v127.605h39.287V59.308h22.152V186.91h95.702v-39.284h-56.416v-23.63z"/><path fill="#8CAB00" d="M1424.565 20.02v-.294h-95.703v150.472L1251.47 19.136l-77.784 157.793-30.618-50.866c18.607-10.93 28.06-27.176 28.06-48.738 0-15.655-5.61-29.242-16.54-40.17s-24.518-16.543-40.172-16.838l-46.965-.295V48.24C1048.7 26.083 1025.857 15 998.92 15c-24.52 0-45.194 8.566-62.622 25.403-16.838 16.837-25.402 37.81-25.402 62.325 0 25.107 8.27 46.08 25.107 62.916 16.836 16.837 37.81 25.107 62.916 25.107 26.91 0 49.818-10.904 68.53-32.508v28.67h39.285v-45.194l26.88 45.193h78.864l16.245-35.15h47.852l17.133 35.15h74.437v-62.915h41.943v-39.58h-41.943V59.307h77.097V186.91h39.285V59.308h30.72V20.02h-90.683zM1067.45 141.916l-24.225-16.738c-11.816 17.428-26.584 25.994-44.307 25.994-13.885 0-25.404-4.726-34.56-13.882-9.157-9.157-13.884-20.678-13.884-34.56 0-13.588 4.727-25.108 13.883-34.265s20.676-13.883 34.56-13.883c16.542 0 30.72 8.27 42.534 24.517l26-19.016v81.835z"/></g></svg>